# xmcd
# 
# Track frame offsets:
#     150
#     17918
#     33544
#     53145
#     70293
#     87487
#     104275
#     124813
#     140050
#     156106
#     173072
#     186335
#     199890
#     224208
# 
# Disc length: 3268
# 
# Revision: 1554223427
# Processed by: cddbd v1.5.2PL0 Copyright (c) Steve Scherf et al.
# Submitted via: fre:ac v1.0.31
# 
DISCID=da0cc20e
DTITLE=Zac Brown Band - Greatest Hits So Far...
DYEAR=2014
DGENRE=Country
TTITLE0=Zac Brown Band - Chicken Fried
TTITLE1=Zac Brown Band - Whatever It Is
TTITLE2=Zac Brown Band - Toes
TTITLE3=Zac Brown Band - Free
TTITLE4=Zac Brown Band - Highway 20 Ride
TTITLE5=Zac Brown Band Feat. Alan Jackson - As She's Walking Away
TTITLE6=Zac Brown Band - Colder Weather
TTITLE7=Zac Brown Band Feat. Jimmy Buffett - Knee Deep
TTITLE8=Zac Brown Band - Keep Me In Mind
TTITLE9=Zac Brown Band - No Hurry
TTITLE10=Zac Brown Band - The Wind
TTITLE11=Zac Brown Band - Jump Right In
TTITLE12=Zac Brown Band - Goodbye In Her Eyes
TTITLE13=Zac Brown Band - Sweet Annie
EXTD=
EXTT0=
EXTT1=
EXTT2=
EXTT3=
EXTT4=
EXTT5=
EXTT6=
EXTT7=
EXTT8=
EXTT9=
EXTT10=
EXTT11=
EXTT12=
EXTT13=
PLAYORDER=
